# Blender 4.1.1
# www.blender.org
mtllib Block_TopLefttWall.mtl
g Plane.028_Plane.028
v -1.500000 0.000000 -1.500000
v -1.500000 0.000000 1.500000
v 1.500000 0.000000 -1.500000
v 1.500000 0.000000 1.500000
vn -0.0000 1.0000 -0.0000
vt 0.000000 0.000000
vt 1.000000 0.000000
vt 1.000000 1.000000
vt 0.000000 1.000000
s 0
g Plane.028_Material
usemtl Material
f 1/1/1 2/2/1 4/3/1 3/4/1
g Plane.029_Plane.029
v 1.499999 3.000000 -1.750001
v 1.499999 -0.000000 -1.750001
v -1.749998 3.000000 -1.750002
v -1.749998 -0.000000 -1.750002
v 1.500000 3.000000 -1.250001
v 1.500000 0.000000 -1.250001
v -1.249232 3.000000 -1.251117
v -1.249231 0.000000 -1.251117
v -1.749999 3.000000 1.500001
v -1.749999 -0.000000 1.500001
v -1.249999 3.000000 1.500000
v -1.249999 0.000000 1.500000
vn -0.0000 -0.0000 -1.0000
vn -0.0004 -0.0000 1.0000
vn -0.0000 1.0000 -0.0000
vn 1.0000 -0.0000 -0.0000
vn -0.0000 -1.0000 -0.0000
vn -0.7058 -0.0000 0.7084
vn -1.0000 -0.0000 -0.0000
vn 1.0000 -0.0000 0.0003
vn -0.0000 -0.0000 1.0000
vt 0.000000 0.000000
vt 1.000000 0.000000
vt 1.000000 1.000000
vt 0.000000 1.000000
s 0
g Plane.029_Default_Material
usemtl Default_Material
f 5/5/2 6/6/2 8/7/2 7/8/2
f 9/5/3 11/8/3 12/7/3 10/6/3
f 5/5/4 7/8/4 11/8/4 9/5/4
f 6/6/5 5/5/5 9/5/5 10/6/5
f 8/7/6 6/6/6 10/6/6 12/7/6
f 7/8/7 8/7/7 12/7/7 11/8/7
f 7/5/8 8/6/8 14/7/8 13/8/8
f 11/5/9 15/8/9 16/7/9 12/6/9
f 7/5/4 13/8/4 15/8/4 11/5/4
f 14/7/6 8/6/6 12/6/6 16/7/6
f 13/8/10 14/7/10 16/7/10 15/8/10
